<svg xmlns="http://www.w3.org/2000/svg" viewBox="0 0 1200 800"><g id="Graphic_Elements" data-name="Graphic Elements"><path d="M157.54,164c.1,0,.15-.08.15-.11S157.62,163.84,157.54,164ZM419.16,469.52s-4.93-1-5.14-1.64-8.64-8-8.83-7.81-3.51-3.3-3.92-2.26-6.78,1-6.78,1l-6.79-1.65s-2.87,2.07-2.26,1.23.21-5.75,0-4.92-10.28-4.32-10.28-4.32l-3.5,3.08v-3.91l-5.33-3.28.62-4.32-2.49-2.06s-.4.62-.6.21-1.65-8.63-1.65-8.63l-7.82-6.38-9.45-.41-8.64-4.74-1.85-4.31s-4.93-2.26-4.93-2.88-1.43-.2-1.85-.41-.19-2.25-.19-2.25L325.2,407l-.82-.56-2-.61-1.23-1.71s4.47-2,4-1.84-10,1.53-10,1.53l-.93,1.84-4.47-2.3-7.55-.47s-5.41-2.15-5.26-2.77-1.69-2.93-1.69-2.93a29,29,0,0,1-1.54,3.24c-.31.31-4.16,3.55-4.16,3.55l.3,4.94-2.62-2.79,1.86-2.62v-3.7c0-.47,2.31-1.54,2.31-1.54l-.93-2s-2.76.77-2.76,1.24-3.7,2.61-3.7,2.61l-4.48,1.7h-2s-2,3.23-2.48,3.39-.29,3.09-.29,3.09-4.95,5.54-5.26,4.92-5.54-4.92-5.54-4.92l-6.18.76-3.54,1.86L249.91,408l-3.39-5.25.32-6.16,1.84-6.79.77-4.47-4.62-3.4s-9.41.77-9.41.31-5.09.16-4.93-.31,1.85-3.38,1.85-3.85,1.24-4,1.24-4l2-4,2.62-7.7,1.54-2.63-7.71-.46-4.63,1.84-2.62,7.72-13.11,3.54-3.23-2.46s-.31,1.39-.15.62-4-6.18-4-6.18l-2-7.54s5.25-15.59,5.09-15.27.16-5.72.16-5.72L224,325.05l6.31.92,1.54,1.54,3.87-.63,3.85-3.84,4.92.64,4.77-.92,2.94,3.24,4.31-1.69,2.31,2.47,1.4,1.53v2.63l-1.08,2.46,1.08,5.55,3.08,4.33,2,.76,2.47-6.78-.47-6.32-1.07-5.1v-3.7l6.33-7.69,8.16-5.87,6.48-3.7,5.7-6.17-.31-5.86,2.48-.45,2.45-5.24,2.47.29,4.79-6,8-2.77,4.95-.92,1.54-1.69-1.85-1.55,3.85-5.71L333.48,264l7.4-2.16-6,3.86,1.23,2.92,4.48-1.23,3.24-2,8.48-2.31s2-3.4,1.69-2.62,4.33-.78,4.33-.78l-.93-1.85.31-2.47-2.46.93-3.72,4-6-.3-2.77-4.17,2.62-3.54s2.61-5.25,2.46-4.93-4.16-1.24-4.16-1.24l-6,2.15c-.62,0-6.32,3.4-6.17,2.94s-2.94,1.69-2.94,1.69l7.86-6.31,3.25-.47,3.7-3.4h17.73l6-1.23,8-4.32.63.78-3.4,3.23-4.16,4.32-4,4.31-2,2.63,6.32.3s4.93.13,5.4,0c.62-.15.77,2.16.77,2.16l2.62-1.85,1.39,3.55,4.63-3.55-1.4-4,1.25-3.71-5.4.17v-2s-2-2.31-2.16-2,3.08-2.61,2.92-2.31-1.39-1.53-1.39-1.53l3.71-4.64L379,227.78l-.63-2.61-4.78-2.32-1.7-2.31-2.16-1.7,1.7-4-.77-2.93s-1.38-9.56-1.54-9.25-6.48,5.24-6.48,5.24l-6.47,3.25-3.4-2.93.32-3.87,2.93-2.77L351.21,200l-.31-1.23s-4.32-4.32-4.62-4l-1.39,1.4-10.18-.94-3.54,6.17-.77,3.24s-5.58,5.58-6.26,6c.41-.12,3,2.48,3,2.48l-2.32,5.54-8.79,5.09-4.31.62s-2.63,9.57-2.47,10.18-3.54,2.31-3.54,2.31l-2.63,1.85L302,235.34a34.66,34.66,0,0,0-1.65-3.24,23.52,23.52,0,0,0,3.19.61l.47-2.16-2.47.16,1.08-3.55,2.31-3.85-8-.62-1.83-2.16-4-.62-.32-1.7L288,216.52l-3.4-1.54-3.69.46-.16-3.23.94-3.08-3.69-.62s6.48-6.63,6.32-6.32,18.19-9.11,18.19-9.11l2.16-2.3,3.54-.32,7.71-3.54,5.86-4,.62.31-4.46,4.16-1.24,1.54-3.54,1.7,3.24.46-.48,1.85,3.56-.61,3.54-2.94,2.79.94,1.23,1.37,3.85-.15-.16-2.93-6-4.31-1.4-1.39-.61-1.54,2.61.32,2.17,1.85,2.31-2.33,4.63-.6,4.62-3.25-.3-2,3.54-3.39L340,169.51l6.17-.16,5.39.16s2.63-1.24,3.09-.47,4.47,3.7,4.47,3.7l-1.54,1.38-6.33.78L349.68,178l4.64.62,3.54-3.7,3.85-.31.62,3.69s-4.32,2.48-4.93,2.63-3.24,1.38-3.24,1.38l-.16,2.79-4.16.46-4.32-.77-2,.15-3.24,2.62,2.62,2.31a46.24,46.24,0,0,0,4.47-2c.62-.46,2.62-1.39,3.08-.61a25,25,0,0,0,3.08,2.92l2.17,4.18,2,.61,6.16,2s4.32,1.08,4.32,1.39-.45-2.62-.45-2.62l-3.26-3.86s-.14-1.08.92-.78,3.72,2.62,3.72,2.62c.45.15,3.54,2,3.54,2l1.23-3.4,2.77-1.7-1.07-2-1.54-1.69-1.7-2,.15-2.31s.47-.32.93-.61,1.85-1.39,2.16-.78,3.4,4.63,3.4,4.63l2.92.61,1.39-2.31a31.21,31.21,0,0,1,3.85-.31c0,.16.31-1.85.31-1.85l3.55-.92-5.08-4.48-2.78-1.39-2.16.62-2-2.32,2.15-2,.93-2.79-2.47-2.46-3.85-.77-.94-2s-3.23-.46-3.69-.16-2.78-2.77-2.78-2.77l-2-2.62c-.31-.15-1.38-1.24-2-1.08s-7.09.31-7.09.31l-1.54.46-2-1.54-8,2-4.16,3.23s-.3-1.85,0-2.31a30.86,30.86,0,0,1,3.7-2.46c.46-.31-3.54-.47-3.54-.47s-7.41,2.47-7.72,2.93-6,4.93-6,4.93l.16,3.7,5.24.78,2,.45L334,170.11l-1.07,2.31-3.39,1.85-4.17,3.08-3.55,1.39-.61-2.46,3.08-1.85s-.62-3.85-.93-3.55-3.54-.15-3.69.31a22.36,22.36,0,0,1,.15-2.92l-.15-3.24-.77-2.48a34.23,34.23,0,0,1,3.07-2.31c.47-.15,5.4-.46,5.4-.46l7.87-4.47-6.48-.3s-6,.14-6.32.77-4.31,4.77-4.31,4.77l-2.47,1.85-8.17,5.1-.31,3.54-3.39-.61-2.46-.47-6.16,2.47v3.39l-11.28.62s-5.39-.78-5.39-1.54-2-2.32-2.61-2.32-7.57,2.16-7.57,2.16L268,176.9l-8-.46s-6.63,1.23-6.48.62-3.55-.32-3.55-.32l5.55-2.46-3.84-1.85-6.95-1.08-4.93-1.54-5.54.77-.62-2.31-4.94,2L227.27,167l-3.39,1.55s-12.64,2.62-13.26,2.77-3.69-1.24-3.69-1.24L203.06,172l-7.39.46-2.94-2.15-6-1.23-6.63.31-12.35-2s-7.08-1.08-6.62-1.25-3.85-1.23-3.85-1.23.18-.51.31-.81c-1.51.64-13.57,2.66-13.57,2.66L127.83,172l-10.65,2.15s.31,2.78.46,3.24,1.08,3.55,1.08,3.55l-2.93.61H112.7l1.55-2.15-15.74,4.31.32,1.7-1.08,2,4.93.47,4.17.46s2.31-1.39,2.31-.92-1.23,4-1.23,4l-4.78.31c-.31-.47-2.78.16-2.78.16s-3.24,2-3.4,1.54-6.46,1.08-6.46,1.08l-7.26,4.16-2.77,4.16-.31,3.08,5.4-.91-3.09,4.16L86,209s4.17,0,4.47.63,2.16.31,2.16.61-36.7,14.5-37,14S50,226.7,50,226.7s7.08-1.23,7.56-1.23S68.5,223,68.5,223l4.93-1.39s10.64-3.08,10.79-3.55,7.56-4.32,8-4.32,2.93-1.07,3.09-.45S106,210.52,106,210.52s3.69-2.63,3.39-3.1-2.47-1.69-1.85-1.84,6.16-.93,6.16-.93,8.33-3.39,8.18-2.93-8.48,6-8.48,6l11.87-2.32,4.79-2s4-1.85,3.69-1.38,4.63,1.84,4.63,2.31,10.33,2,10.33,2l3.08,4.62-.62,6-.31,7.56,5.55-.62L155,228.86l.32,8.17s.3,2.93.3,3.39-4.32-.92-4.32-.92-.62,3.54-.16,4l5.56,5.55-1.7,2.17-3.86,9.56L142,271.26,140.51,277,136,281.9l.78,3.55s-1.24,2.47-.92,2.78S138,305.34,138,305.34l6.48,4,1.69,3.08.93,12.64,2.77,5.71-3.08,2.16,3.54,4.92,1.4.16,2.78,3.23-1.09,4.33,2.93,2.31,2.78,4.32.46,2.15,2.63-2.62-2.63-5.39s-1.85-4-1.69-4.93-2.46-7.87-2.46-7.87-2.48-5.25-2.17-5.71-1.86-3.54-1.86-3.54l1.09-6.32,4.47.93s.77,5.84.77,6.47a43.53,43.53,0,0,0,1.08,4.32l5.86,8.16L163.8,342l11.25,13.41-.15,5.4-1.7,2.61.92,3.71,9.41,6.94,1.54-.3,2.77,2.77L198,381.66l5.1,1.24,6-1.86L213,382.9l5.86,6.78,6,1.54,6.16,2.16h3l.77,3.54s2.77,3.55,3.39,4,.15,4.47.15,4.47l2.62,1.38L244,410l2,1.86,2.17,2.46,1.38-.92,2.78.76,4,3.71,2.62-1.55-.76-2.92,2.45-2.47h2.17l2.31,1.85L265,415l2.77,4.47.16,12.49-2.47,4-3.4,2.32-.14,3.69-3.56,1.38-1.38,4.94-2.17,4.32.47,3.69,3.09,2.78L255.53,462l-2,2.92,1.83,5.83a24.1,24.1,0,0,0,.92,2.62c0-.3,2.95,2,2.95,2l5.39,10.78,5.23,7.57s7.62,15.34,7.77,15.46c2.3,1.69,19.08,13.78,19.08,13.78l2.86,15,.84,31.65,2.46,9.06-1,18.3L301,600.7s3.29,5.76,3.29,6.59.61,8,.61,8l2.26,7.81,2.67-.2-1.64-4.52,2.06.21,1.43,7.18.2,2.88-1.63-1.44-1.45,1.44-1,1.24,2.06,1.85-1,2.86-.41,3.71,2.88.42,2.05,1.64-2.05,3.49S324,666.28,334.73,669s13.77,3.5,13.77,3.5L353,670l1.43-1.85L345,664.84l-7.2-7.82-1.44-4.1,2.26-1.64-.41-3.09s0-2.26.81-2.88,2.48-3.7,2.48-3.7L339,640.38l-4.1-4.11.41-4.74,2.47-1.43s.2-2.68-.21-3.29.62-3.7,1.24-3.91,2.25-2.68,2.25-2.68h-2.87l-1.64-.61-2.06-3.28v-2.47l3.49,1,3.3-.61,1.85-2.68s-.62-1.64-.82-2.25.41-3.29,1-3.5a28.08,28.08,0,0,1,4.32.21l7-1.85s2.68-4.73,2.47-5.56a25.85,25.85,0,0,1-.2-3.49s0-1.84-1.65-2.06-1.65-.81-2.06-2.47a13.92,13.92,0,0,0-1.65-3.49l-2.05.41,1.85-1.84,4.11,3.07,6.17,1,4.73-4.74,3.29-8,1.44-6h3.07l3.29-6,1.24-5.55-1-6.79,1.44-2.46,10.69-7.19,8-2.68,2.69-2.06s4.09-5.55,4.09-6.16,1.65-8.64,1.65-8.64,1.85-9.45,1.64-10.06.42-8.85,0-9.06.21-2.47.21-2.47l7.81-11.09,3.7-8.44s2.69-4.32,2.27-5.14-2.63-7.89-2.63-7.89Zm81.29-300.95s1.24-6.17.31-6.79,3.71-4.31,3.71-4.31,6.77-3.09,7.08-4-1.85-.63-1.85-.63l.61-4.62,4.33-1.54a36.83,36.83,0,0,1-3.09-5.56c-.61-1.83,7.41-2.77,7.41-2.77l14.18-6.47-16.95,1.85-.63-2.15-17.88-4-35.76,1.24-4,2.16H445.56l-17.26,1.54S412,134.65,411,135.26s1.86,1.55,1.86,1.55l-.31,2.16-20.06,2.47-1.22,2.16,2.46,2.46c.3.31,8.64,2.16,8.64,2.16l9.87,1.23s5.55,2.47,6.46,3.38.64,3.72.32,5.26-1.23,1.85-2.46,3.7,2.46.92,2.46.92l4.32,2.16a20.18,20.18,0,0,0-3.09.32c-1.86.3-4.32.91-4.32.91l-.31,3.4,6.18-1.23-.63,2.15-4.31.93-4.29,5.23-.31,9.87.92,8.33,2.47,6.78,4,.62,4.63,2.78,6.18-.32,6.15-8.32,6.47-6.17,1.86-3.39,3.09-1.85,6.77-1.53,8.64-1.86,8.95-5.86c.91-.62,23.12-7.39,23.12-7.39l4.9.3Zm6.19,22.51,8.64-2.77,1.84-3.39-3.39-2.77L498,184l-4.63-2.78-5.54,3.09a39.51,39.51,0,0,1,3.7,1.85c.92.61,2.77-.62,2.77-.62v2.78s4.93,2.77,4.31,3.7,8-.93,8-.93Zm15.2,42-1.75,1.15-.51,2,1.54.92,2.47.52,2.56-.62,2.17-1.23.61-.62,3.6-.22.41-1.52.83-1.55v-4.42l2-1.13-.62-2.87-3.08-.72-2.46-.41-1.64.51-.95,1.33-1.22,1.33c.32-.3,1.13-.3.94.21a3.24,3.24,0,0,1-1.05,1h-1.21l-1-.62-1.53.21-.52.92.63,1.44-1,1,1.23,1,1.23.3-.19,1.45-1.42.6ZM534.07,221c.73.3,1,.72.93,1s1.54.52,1.54.52l1.34-.31-.92,1.44a4.65,4.65,0,0,0,.5,1.34c.32.41,1.35,0,1.35,0a19.4,19.4,0,0,1,2.78-.31c.3.1-.11,1-.11,1l.93,1.43s.51,2.06.61,2.67-.82.41-.82.41a14.37,14.37,0,0,1-2.37.22c-.41-.11-1.22.71-1.94,1.52s.1.53.1.53h1.53s.12,1,.22,1.44-1.24.82-1.64.71a8.24,8.24,0,0,0-2.27.83l.1,1.54,2.27.21,2.26.31.41.72s-1.45.3-1.86,0-1.64,1.64-1.64,1.64l-1.13,1.23L533.87,243l1.33.62.83-1,2.07.1,2.24-.31s1.35-1.64,1.66-1.64l3.49-.1a12,12,0,0,1,2.88-.31,23.77,23.77,0,0,0,2.69.72,38.05,38.05,0,0,0,4.3-1.13s.82-1.33,1-1.74-1.13-.82-1.43-1.13,1-.72,1.64-1,.82-1.44,1.13-1.95-.41-1.55-.52-1.85-1.54-.22-2-.32a12.75,12.75,0,0,0-2.15.1l.09-2.05s-4.83-6.58-4.73-6.89a4.46,4.46,0,0,0-1.64-2.35,3.25,3.25,0,0,1-1.75-1.35c-.61-.82.82-1.85.82-1.85a27,27,0,0,0,2-2.26,2,2,0,0,0-.51-1.75c-.31-.1-3.9.11-3.9.11s-1-.82-.93-1.13,1.13-.42,1.45-.42,2.15-3.59,2.56-3.69-.31-1-.31-1l-1.43.6-1.34,2a3.3,3.3,0,0,1-1.75,0c-.51-.31-1.54,0-2-.11s-1.35,1.24-1.35,1.24a10.13,10.13,0,0,1-1.84,1.64,5.84,5.84,0,0,0-1.75,1.85A7.39,7.39,0,0,1,535,216a1.38,1.38,0,0,1-.82.61c-.51.1.41,1.85.41,1.85l1.25.62s-.74.71-1.14.62-1.34,1-.62,1.33Zm483.53-22.3c0-.08-.05-.08-.14,0,.11.07.13.09.13,0ZM891.38,380.12c.21-.31,3.08-1.75,3.18-2.48s2.16,6.7,2.16,6.7l1.45,5.13s1.12,3.7,1.53,4.42a32.85,32.85,0,0,1,1,5.86c0,.41,1.35,3.18.73,3.49s-1.64.1-1.44.52a16,16,0,0,1,.71,3.1,25.09,25.09,0,0,1-.5,3.68,9.42,9.42,0,0,0-.3,2.46c0,.62.39,1.76.39,2.06a2.21,2.21,0,0,0,.31.83.44.44,0,0,0,.62-.31c.21-.52,1.75-.72,2-.52s2.56,3,2.77,3.81a43.15,43.15,0,0,0,3.08,5.24c.31.41,1.65,1.75.81,2.88s-.81,1.33-.7,1.95a9.51,9.51,0,0,0,1.43,4.12c1,1.22,3.19,3.59,3.19,3.59a32.12,32.12,0,0,1,3.09,2.37c.4.51,3.39.82,3.7,2.05a9.28,9.28,0,0,0,1.13,2.48s2.35.71,2.35,1a23.08,23.08,0,0,0-.3-4.34c-.3-.5-2.76-5.54-3.08-5.85a2.4,2.4,0,0,1-.51-2.35,20.51,20.51,0,0,0-.21-4.85l-4.83-5.76s-4.21-4.11-4.31-3.9-3.3-1.23-3.18-2.47-.33-4.31-1.25-5-1.74-1.86-2.46-2.26-.2-4.33,0-4.84a47.76,47.76,0,0,0,1.75-5.33c-.11-.31.41-4.52.41-4.52s1.33-1.77,1.64-1.15,1.75,0,1.34,1.85a8.31,8.31,0,0,0-.2,3l3.69-.73,2.58,2.68,1.85,2.46,2.36,1.44a13.49,13.49,0,0,0,.93,3c.31.22,1.85-.61,1.85-.61l2.36,1.66s-1.34,2.46-1,3.08a16,16,0,0,1,.6,2.77l2.27-1.85,2.89-2.16,1.44-2.06.51-1.54,4.1-1.75,3.91-3.6-.09-7.61-1.24-4.72-3.49-4.94-6.8-6.78-2.66-3.28s-1.85-2.37-1.76-3,.51-3.91.51-3.91l1.86-1.75,3.6-3.6s2.47-1.64,2.88-1.23,3.7.31,3.8.61.53.21.3.82a8.82,8.82,0,0,0,.41,3.71,4.56,4.56,0,0,0,1.35.72c.29.09,1.33-.32,1.44-.93s-.11-2.78,0-3.29.3-.51.62-.62a11.14,11.14,0,0,1,1.84,0l1.65-1.64,2.87,1,3.09-2.68s1.65-.3,1.85-.1,2.89-2.05,2.89-2.05l2.77-.62,2.46-1s1-2.37,1-2.06,6-5.95,6-5.95l2-4.84,2.35-6.88,1.44-8.54.11-2.47s-2.27,1.85-2.57,2a10.94,10.94,0,0,1-2.16-.41l1.44-2.57s.82-1.85.41-2l-2.47-.72s.89-2,1-2.16c-.19,0-3.58-3.5-3.58-3.5s-4.53-6.47-4.74-6-3.69-2.46-4-2.46-.51.1-.71-.52,3.09-4.93,3.19-5.25,3-3.49,3.5-3.39,2.25.21,2.25.21-.42-2.06-.72-2.16-7.29-.72-7.29-.72-2.77,1.65-2.88,2.06-2.36.21-2.36.21l-.31-2.37-2.79-1.33-3.18-1.13.11-2.16s1.94-.72,2.26-.94,2.77-1.43,3-2.47,1.85-2.67,2.07-3,1.53-1.43,1.83-1.23,2.28,1.65,2.06,1.75-1.53,2.27-1.23,2.87,1.75,2.48,1.55,2.78-.82,1.45-.82,1.45l1.54-.21s2-1.54,1.84-1.74,1.55-2,1.85-2,3.71-.73,3.8-.42,3.51,1.13,3.51,1.13l.61,6.18s8.23,1.95,8.23,2.46-.93,1.33-.93,1.33-.1,1.65.31,1.86a10.82,10.82,0,0,1,2.06,1.75,18.93,18.93,0,0,1,.93,3.19s-1.13,2.46-.93,2.77,2.26,2.16,2.26,2.16l5.86-2.26s3.18-2.47,3.18-2.77-3.39-8.54-3.39-8.54l-7.82-5.36-3.38-2.77,4.73-4.62-.42-4a28.18,28.18,0,0,1,1.24-3.92c.21,0,3.08-2.05,3.08-2.05l3.29,2.27,4.93-3.09,2.78-10,.1-13-4.42-7.91s-2.05-4.84-2.37-4.84-3.28-4.63-3.28-4.63l-6.89-3.08-3-.1-1.84,3.08-1.94-2.36-2.68-4.72.3,2.87a9.43,9.43,0,0,1,.29,2.26c-.07.41-2-2.57-2-2.57s-3.29-.61-3.49-.61a15.79,15.79,0,0,1-1.85-.94s4.85-5.64,4.43-5.43.82-7.2.82-7.2a25,25,0,0,1,1.84-3.29c.11.2,6.78-.72,6.78-.72s12.23-.2,12.13,0,6-.4,6-.4.19,1.74.73,1.95a46.62,46.62,0,0,0,5.43-.11l3.6-.82,1.74-.21a17,17,0,0,0-2.47-2.16,19.53,19.53,0,0,1-2.56-1c-.21-.1,1.54-4,1.44-4.62s-.31-2.78.51-2.57,6.38.21,6.38.21,2.25,2.15,2.25,2.77,3.6,2.77,3.6,2.77,2-2.16,2.16-2.56a6.91,6.91,0,0,1,1.61-1.68,31,31,0,0,1-2.11-2.54s1.74-2,2.66-.93a37.93,37.93,0,0,1,3,5.45s-1.85,4.62-1.85,5-.72,4.63-.72,4.94-2.06,2.15-2.06,2.15-1,0-1,.52a20.85,20.85,0,0,0,1.42,3.28,17.25,17.25,0,0,0,.82,3.39c.32.22,10.6,9.15,10.6,9.15l6.68,6.59,4.33,3.59,1.22-.3s1-5,.62-4.84-2.06-1.54-1.84-1.84.6-1.77,1.11-1.66l2.06.41-3.08-3.9,1-2.16,2.38.72-3.19-3.39-1.65-3.29s1.75.41,1.87.71,1.94-1.32,1.33-1.43-4.32-1.45-4.32-1.75-2.16-.82-2.28-1.24.42-2.05.12-2.05-3.49-1.44-3.49-1.44l-2.07.3-1.13-2.25.61-1.75s-2-2.79-2.14-3a40.36,40.36,0,0,0,4.79-1.65c0,.07,2-.17,2.18.6a4.35,4.35,0,0,0,1.13,1.66l2.17-2.06s1.54-1.34,2.16-1,3.59.94,4,1.34,2.23.91,2.52,1.25c0-.43,0-1.77,0-1.77l.09-1.12,2.89-3.9s1.12-1.65,2.16-1.86,3.18-2.05,3.59-1.74,3.82.21,4.23,1.13,2.26-.31,2.26-.31-1.76-2.15-1.85-1.95-5.77-2.27-6.07-2.16-4.11-2.26-4.11-2.26-2-.72-2-.72a14,14,0,0,1,2.14-1c.62-.2,2.07-2.16,2.07-2.16a10.93,10.93,0,0,0-1.14-1.74c-.41-.41,2.27-.11,3.19.31s5.56.61,5.45.92,3.08.3,3,1.13,1.13,1,1.54,1.44,4.32,1,4.53,1.13,4.09-.31,4.09.3,1.24-.1,1.24-.1-.61-3-1.33-2.77-2.07-.82-1.14-1,2.68-1.23,2.17-1.44a23.06,23.06,0,0,0-2.57-1.75c-1.23-.51-6.17-1.63-6.68-1.44s-8.23-1.65-8.73-1.65a31.39,31.39,0,0,1-3.2-.71l-26.31-7.09s-16.34-1.74-16.25-2.06-9.45-1.13-9.45-1.13l5.66,4.73-5.66-.82s-7-1.13-7.19-1.44-19.54-.41-19.54-.41l-2.87-3.09s-9.26-1.53-9.57-1.64-11.82,0-11.82,0l-9.64-1.44s-6.49-2.78-7.93-2.46-15.62-.93-16.45-1.34-6.46.41-6.46.41l4.6,3.5-7.59-.22-7.61-.1L894.16,162l.12,4.22s-2.17.4-2.17-.11-6.68-2.87-6.68-2.87-5.56-4.93-5.66-4.62-9-1.75-9-1.75l-5.57-1s-1.65.71-1.44,1.12,2.36,1.85,2,2.16-3.69-.31-3.69-.31l-8.74-.31-1.55-1.64-11.51.1s-4.32-3.39-4.43-3.2a20.38,20.38,0,0,1-3.28.74l-2.47,2.67-7,.51,7.52-4,2.67-1.95c.19-.52-1.87-3.6-2.27-3.19s-6.27-1.44-6.58-1.44l-9.15-.21c-.62-.1-3.39,0-3.39,0s-1-2.87-1.54-2.77-7.2-.1-7.2-.1-6,1.23-6.18,1.85,1.14,1.23,1.14,1.23-3.18,2.36-3.49,2.16-9.57-.21-9.57-.21-12.84,2.77-12.84,2.46-3.85,1.38-4.74,1.78c.75.66,3.45,2.19,3.09,2.56s-9.05.82-9.36.2-3.69.74-4.23.82a34.61,34.61,0,0,1,5,3.9,1.66,1.66,0,0,0,2.06.82c1-.41,2-.82,2.16-.41a2.74,2.74,0,0,1,0,1.34s-2.58.51-2.87.51-3.4-1.75-3.71-1.85-4.41-1-4.93-1-2.79.3-2.79.3-1.74,1.55-1.33,1.75,1.45,2.16,1.76,2,2.16-1,2.25-.11-2.15,1.65-2.15,1.65a18.53,18.53,0,0,1-3.2-1.54c-.1-.32-1.54-2.06-1.54-3s-1.85-4.21-2.36-3.7a5.67,5.67,0,0,1-2.36.72l2.26,2s1.95,1.64,1.44,1.75a4.92,4.92,0,0,0-2,1.23c-.11.31-1.24,2,.1,2s3.49,2.07,3.49,2.07a21.11,21.11,0,0,0,.3,3.19,29.86,29.86,0,0,0,3.39,2.56,26.51,26.51,0,0,0,2.26-1.54c.32-.31,3-.82,3.61-.2s-1.24,2.15-1.75,1.85a3.3,3.3,0,0,0-2.15-.42l-.53.21s-.71,1.54,0,1.85,1.66,1.34,1.56,1.85-2.06,4-2.06,4l-2.89.61a16.94,16.94,0,0,1-2.66-.92l3.08-2.36.41-3.19s.11-.21-.71-.93-3.71-3.28-3.71-3.28a29.53,29.53,0,0,1-1.75-3.19,10.57,10.57,0,0,0-.82-1.86,18.15,18.15,0,0,0-2.37-1.42c-.4-.11-.4-1.25-.09-1.86s-.31-3.39-.41-3-3.61-.1-4-.2-1.34-1.24-1.34-1.24-.5-1.74-1.34-1a5.78,5.78,0,0,1-2.25,1l-1.44,3.8.41,1.54-2.88,2s2.43,2.09,2.66,2.25a9.5,9.5,0,0,0,.22,2.58c.09.52,4.42,1.65,4.42,1.65s2.26.92,2.46,1.85a3.1,3.1,0,0,1-.62,2.05l-4.41-2.05L723,170.42s-9.45-.62-9.25-.92-3.6-2.48-3.6-2.48L708,168.15a26.76,26.76,0,0,0,2.37,1.54l3.39,1.24a2.53,2.53,0,0,1,1.13,1.34c.21.82-1.75,1.84-1.75,1.84s-1.33-1.43-1.33-1.74-.31-1.54-.72-1.34l-4.22,2.16s-4.31.1-4.83.51-3.29,2.37-3.5,1.85.41-2.67.32-3.08-4.32.73-4.32.73-5.44,1.74-5.66,2.25-2.66,1-3.09,1.13a4.47,4.47,0,0,1-.91.1s-2.16,1.35-1.75,2.06-3,1.12-3,1.12a14,14,0,0,1-2.26-1.63c-.09-.28,2.34-1.91,2.57-2-.31.2-2.57-2.68-2.88-2.78s-5.86.06-6.85,0a9,9,0,0,1,2.64,2.45c0,.31.31,3.29.31,3.29s1.63,1,2,.91-.32,1.76-.32,1.76l-2.76-.31s-1.14-1.65-2.07-.72-4,3.3-4.2,3-2,.31-1.85.92,1.44,1.95,1.44,1.95-2,1.65-1.76,1-5.34-2.05-5.75-1.95-2.79.82-2.79.82l1,1.75s3.09.2,3.49.82-.7,1.85-1,1.85-7.49-3.39-7.49-3.39-2.37-2.47-1.66-3.18,1.35-1.85,0-1.85a3.71,3.71,0,0,1-2.85-1.45c-.11-.41,8.1.83,8.1.83l4.74.51s-.61.62,1.24,0,4.93-2.17,5.34-2.25.92-2.07.92-2.07l-.62-1.75-17.67-4.21s-5.87-1.75-6-2-5.24-.83-5.24-.83l-2.47.32,2.07-2.58s-8-2.37-8.23-2.06a32.29,32.29,0,0,1-3.5,1.86l-6.16-1-7.93,1.85-8,2-11.6,4.93,4.31.41-1.86,3.18-5.14,3.81-2.87,4.72-.41,2.57-2.77,3a18,18,0,0,1-2.36-1.43c-.41-.42-7.2,1.94-7.2,1.94l-4.11,3.91s-1,2-1.23,2.47.3,6,.3,6,2.47,0,1.75.72-.62,4-.62,4l2.88,1.94a27.64,27.64,0,0,0,4.33,1.13,17.12,17.12,0,0,0,2.67-1.54c.29-.2,2.56-2.46,3.28-2.36s2.57-2,2.78-1.23a24.92,24.92,0,0,0,1,3.91c.41.61,1.85,1.74,2.46,3.18s1.46,2.88,1.24,3.18-1.65,1.74-1.65,1.74-3.07.42-3.49.84-.92.61-1.23.41,1-1.66,1.33-2.05-.71-2.07-1.13-2-.81-.92-.41-1.23.31-2.26.31-2.26-.62-.31-.92-.2-3.91,1.54-3.91,1.54a18.3,18.3,0,0,0-2,2.46c-.11.42-.94,2.58-.41,4.11a40,40,0,0,0,1.74,4s1.33.92.82,1.33A14.37,14.37,0,0,0,578,228.7l-2.46.1s-4.42.53-4.84.72-4.71,1.54-4.52,2-.93,4.84-.93,4.84c-.2.1-4.52,3.18-5,3.18s-3.7.82-3.7.82a29.13,29.13,0,0,1-1.54,3.59c-.1-.2-4.84,2.26-4.84,2.26s-3.59-1-3.69-1.44-1.34-1.33-1.44-1,1.23,3.51,1.23,4.12.21,1.84-.21,1.44a16.1,16.1,0,0,0-2.87-1.23,25.61,25.61,0,0,0-3.91-.11h-1.44s-1.75,1.55-1.86,1.23-.2,1.35-.2,1.35l1,1,3.71,1.54,3.49,2.16,1.33,3.28,1.54,3.09s-1,6.37-1.22,6.69a26,26,0,0,1-2.37,1.75l-6.69-.12s-3.29-.71-3.6-.82-4.93.62-5,.21-1.54-.31-1.54-.31l-.73-.82h-1.85l-1.54,1.74L520,270v1.84s.92,4.23.82,3.92-.41,4.93-.41,4.93-2.22,4.46-2.44,4.8c0,.14-.13,3-.13,3l1.34,2.16.21,2.57s-1,2.36-.62,2.15,3.71.1,3.8-.3,2.06-1.34,2.36-.62,1.45,0,1.77,1.24a17.66,17.66,0,0,0,1.53,3.28c.1.32.93.62.93.62l.3.83-.62.51-2.56,5.75-5.66,4-3.39,2.16-.93,2.57-1.43,1.65-.41,3.18a27,27,0,0,1,.2,4.22c-.2.2-7.71,7.29-7.71,7.29l-4.11.93-2.27,3.91a33.86,33.86,0,0,0-3.28,3.39,26,26,0,0,1-1.75,2.47s.1,4.1,0,3.49-4.42,3.39-4.42,3.39-.82,4.73-1,4.94-2.26,3.8-2.58,3.7-.61,2.46-.61,2.87,1,1.64,1,1.64,1.45,2.79,1.55,2.48.09.93.09.93l-1.43,1.43a20.53,20.53,0,0,1,1.55,2.68v6.36l-1.66,3.5-.82,4.53-2.47,1.95.1,1.23,2.16,1.74.32,1.95-.63,2.17v2.17l1.56,3.59s1.54,1.23,1.84.92,3.38,1.95,3.8,2.67,4.21,5.24,4.21,5.45a6.77,6.77,0,0,0,.62,1.24l1.85,6.27s8.94,7.39,9.15,7.09,9.56,6.67,9.56,6.67,7.51-3.69,7.41-3.37,6.36-.32,6.36-.32l3.92.62,2.86,1.33,10.5-4.82,2.06-1.56,8.11-.29,3.91,1.52s2.57,3.82,2.57,4.43,1.54,3.39,1.75,3,9.15-.82,9.46-.72,4.21,3.92,4.21,3.92l-.2,3.6-.62,6.36-1.24,3.09-1.22,2.78-.31,1.95S588,464.62,588,464.72s2.36,5.65,2.36,5.65l2.79,7.1,1.65,4-1.65,2.26,2.67,6.9-.92,6.78-4,8.74-1.74,6.47.51,8.64,4.82,10,5,11.41.52,12.55,4,7.49,2.88,6.06,2.77,6.59,1.43,1.95s.22,3.29-.11,3.29-1.83.11-1.42.72S612.4,586,612.4,586l.1,1.85,3.28,1.84,2.9-1.33a24.59,24.59,0,0,1,3.18-.41,36.18,36.18,0,0,0,4.31-1.34l6.17.93,4.32-2.26,4.73-.31s8.12-7.92,8.12-7.71,7.49-9.66,7.49-9.66l3.82-3.29,2.15-6.48-.31-4.2s.73-2.18,1.44-2.58,7.71-4.52,7.71-4.52l1.45-6.79-1.35-6.69a24.34,24.34,0,0,1-1-3,15,15,0,0,1,.72-2.27l6.79-6.06s1.54-1.95,2.26-2.67,7.08-3.49,7.08-3.49l4.33-4.21.72-15.53s-1.54-5.77-1.64-6.27-3.08-10.28-3.08-10.7-1-6.37-1.15-6.89,2.36-7.39,2.36-7.39l3.41-6.69L706.56,442l7.82-6.26,11.81-19.34,3.81-8.95.81-9-2.46-.41a20.23,20.23,0,0,1-1.54,1.64c-.31.21-7.4.62-7.4.62l-8.64,2.56-4.21,1.54-4.11-4.31.61-3.08-5.54-6.59-7.82-7.79s-3.92-3-3.71-3.29-2.16-7.51-2.16-7.31-3.91-3.59-3.91-3.59l-.1-6.9-4.21-6.87L671,346.2s-3.91-9.67-4.32-10.18-1.95-3.08-1.44-3a37.27,37.27,0,0,0,4.21-.41s6.88,8.13,6.88,8.54,4.13,7.29,4.13,7.29,3.07,4.32,3.07,4a34.07,34.07,0,0,1,.62,4.33,47.85,47.85,0,0,0,1.85,5l5.86,5.25,1.23,3.79,5.35,5.86,1,3.71-3.6-3.3s-1.13,1.85-.72,2.17,4,4.11,4,4.11l1.76,5.23,1.33,4.94,2,1.65,5.76-1.13,1-2.27h5.66l2.46-1.85,3.08-.41s2.37-2.37,2.57-2.47l9.36-4.1s.2-3,.61-3,9.57-2.87,9.57-2.87l.92-3.49,3.28-.21.93-2.36,3.19-1.95L753,364l2.37.71.72-1.75-.82-1.12,3.6-5.24.1-1.86-3.49-3.18-1.64-1.75s-5.56-.62-5.77-1-2.36-5.35-2.36-5.35c0-1.54.1-4.32-.21-4.11s-2,2.16-2,2.16l-6.36,5.86-5.56,1.44s-1.84-.52-1.95-.82-.31-5-.31-5a31.43,31.43,0,0,1-2.47-3.19c-.1-.41-1.85,3.61-1.85,3.61s-2.67-3.61-2.37-3.72-1.23-3.59-1.23-3.59L716,329.86l-.31-3.19a26.81,26.81,0,0,1,3-2.89c.41-.1,4.11-.61,4.52.73s3.5,5.86,3.5,6.48,4.72,4.72,5.24,4.62,2.35.92,3,1.33a18.54,18.54,0,0,1,2.36,1.66c.51.5,1.85.2,1.85.2l3.39-.52s2.77-2.67,2.88-2.16,3.28.73,2.88,1.44.11,2.79.4,3.4,14.19,2.78,14.19,2.78l6.38.82s6.77-.62,7.19-.62,4.74.42,5.14.3,6.58,6.69,6.58,6.69l5.75,2.89,1.33-.11L792,355.15a28.21,28.21,0,0,1,1.12,2.88c0,.3,5.76,4.42,5.76,4.42a16,16,0,0,1,2.36-1.35c.31,0,1.75-.51,1.86-1.23s-.32-2.77.2-3,1.23-.83,1.35.1,1.34,9.76,1.13,9.86,1.74,6.68,1.74,7,2.57,8.33,2.67,8.64,4.31,9.35,4.62,9.66,4.42,11,4.42,11,2.37,4.43,2.27,5.15.82,4.21,1.44,4.63a31.9,31.9,0,0,0,3.38,1.44,10.2,10.2,0,0,0,1.66-1.75,21.18,21.18,0,0,1,1.63-2.87c.41-.63,2.28-.82,2.37-.42s2.27,1.44,2.27,1.44l-.23,5s.43,3.28.73,4.54,2.88,2.26,2.88,2.26l3.09-2.78,1.33-4.74L839,410.46s-2.36-2.57-2.67-2.89A8.84,8.84,0,0,0,834,407a9.27,9.27,0,0,0,.43,1.43c.21.41-.43.52-.43.52l-2.35-.92.41-2.7s1.77-.3,2.07-.3-.13-4.11-.13-4.11.64-7.29.85-7.5-.31-7.4-1.14-7.7,0-2.67.42-2.78,4.41-1.54,4.41-1.54l2.26-4.42,4.32-3c.31-.2,4.93-5.13,4.93-5.75s.52-2.15,1.75-2.37a12.45,12.45,0,0,0,3.5-1.84v-3.4s.41-1.64,1.34-2.05a17.74,17.74,0,0,1,3.28-.73s.52,1.34.21,1.54,5.24-1.54,5.24-1.54,2.46,0,2.87-.09,1.65-2,1.65-2-.52-1.66.19-1.25,2.49,2.27,2.28,2.58,1,2.36.72,3.18,4.73,6.38,4.73,6.38,2.46-1.14,2.26-.31-.72,3.4-.72,3.4a10.1,10.1,0,0,0,2.15,1.12c.62.1,2.37,3.5,2.37,3.5s-.41,3.07-.41,3.48.22,3.4.1,3.92,4.21,1.45,4.21,1.45,3.49-2.8,3.69-3.11ZM586.61,227.37l3.4-2.88.73-2.78s3.18.52,3.27.93.84-.93,1.64-.2,1.86.6,2,1.22.71,1.34.82.93a13,13,0,0,0,.1-1.75s-.92-.51-1.44-.83a.94.94,0,0,1,.1-1.52c.51-.31,1.95-1.15,2.37-.84s2.26-.41,2.26-.41.31-.62.51-.92,1.24-3.09,1.24-3.09a1.73,1.73,0,0,1-.93-1.23c-.21-.92,1.13-3.6,1.45-3.7s4.32-2.47,4.32-2.47,1.53-1.65.92-2.15-5.25-2.78-5.25-3.3-.51-3.18-.21-4.21,2.17-3,2.47-3.4,2.58-3.17,3-3.08a6.42,6.42,0,0,0,2.35-.4c.42-.22,4-1.86,3.39-2s.21-2-.1-1.85.31-2.36,1-2.57,2-1.13,2.27-1.13,2.78.11,3.39.21,2.77-.92,3.08,0,1.12,1.13.41,1.44a20.69,20.69,0,0,0-3.39,2.66,29.1,29.1,0,0,1-4.53,3.09,5.61,5.61,0,0,0-1.44.83c-.82.5-.82-.72-1,1.22s-.51,4.11-.11,4.84.72,1.85.31,2.37-.11.82,0,1.74,1.36,1.34,1.45,1.75,1.74,1.23,1.74,1.23c.82-.09,1.76-.2,2,.21a.47.47,0,0,0,.63.21l1.73-.42s1.76-1,2.38-.92,1.43-.21,2.15,0,3.8-.83,4.22-.72,3.28-1.13,3.49-.72,1.75.31,1.75.31l1.24.92c0,.62-1.24,2.05-1.54,2.27s-1.34,1-1.95.82-1,.1-1.86-.2a13.24,13.24,0,0,0-2.78-.73c-.41,0-5.23,1.14-5.23,1.14l-2.46.71-.43,1.45.31.31,2.47,1.53c0,.52,1,.21.82,1.44a7.58,7.58,0,0,1-.61,2.36c-.32.62-1.55,1.75-1.85,1a10,10,0,0,0-2.26-2.36c-.4-.31-1.64-.1-2.38-.1a2.61,2.61,0,0,0-2.15,2.16c0,1.12-.72,2.58-.42,3.69s1.66,2.58,1,3.3a8.75,8.75,0,0,1-2.67,1.54c-.61.31-2.06,1.34-2.57,1.54s-2.06.82-2.37.1-.92-1.85-.92-1.85-.51-1-.73-.71-1.33.41-1.33.41l-2.66,1-1.75,1.23c-.32.2-1.86.2-2.47.51s-2.47,1.85-3,1.13-.82.51-1.45-.62-.41-2.36-1.13-2.15-2.37.62-2.56,1-.42.41-.82.82-3.4.71-3.4.71v-.2Zm85.16,76.12c-.77,2-.77,4.62-1.85,6.63s-1.55,3.07-2.31,4.32-.78,2.92-2,3.69-3.08,1.85-4.16,1.09-5.39-.62-5.87-.47-5.69-.15-6.31.92-4.61.31-5.25,0-8.16-3.39-8.78-3.54a37.59,37.59,0,0,1-5.1-2.31c-.62-.46-4.46-.93-4.61-1.39s.3-1.08-.32-.93a41.56,41.56,0,0,0-5.7,2c-.63.48-2,1.72-2,1.72s-1.86,1.84-1.71,3.23,1.86,2.47,1.24,3.24a10.19,10.19,0,0,1-2.77,1.69,21.73,21.73,0,0,0-3.08-2.46c-.78-.31-8-1.39-8-1.39l-2.94-3.39s-4.62-3.09-5.09-3.24-5.55,0-6.33-.62-3.24-3.85-4.46-3.7-.77-1.85-.31-2.15,1.85-2.93,1.69-3.39.77-3.08-.77-3.85-.46-3.41-.46-3.41,1.54-.31.93-.31-2.93.16-3.55-.61-.78-1.08-1.38-.77a19.58,19.58,0,0,1-4.94.77c-.47-.15-4.16.3-4.78.3s.15.16-.62,0-3.86,1.25-4,1.85-3.23-.14-3.7,0-4.94.16-4.94.16l-7.4,1.23s-4.93,2.48-5.09,3.25-1.69,2-2.15,2.31-3.23,0-3.4-.46-5.09.16-5.09.16-2-1.09-2.62-.62-.61-2-.61-2l.77-1.84,2.77-1.85,6.64-1.25,3.24-2.15,2-.77,1.23-3.23s2.32-.46,2.16-.93-.76-2.62-.76-2.62l4.46-6.94,6.32-3.09,1.09-2.16s-.61-2.77-.16-3.24,4.63-1.39,4.63-1.39l5.24,1.7s2.78-1.84,3.39-2.15,3.55-2,3.55-2,.3-1.38.92-1.23,3.24-.46,3.55.77a36.49,36.49,0,0,0,2.62,5.09l3.54,3.71,3.4,2.62,4.17,1.53a28.6,28.6,0,0,0,2.92,2.32,23.22,23.22,0,0,1,2.77,2.78l1.23,2.15a15.07,15.07,0,0,1-1.38,2.47c-.61.77-2.47,2.78-2.93,2.61s-4-.76-4-.76l-3.85.46a1.23,1.23,0,0,0,.47,1.7c1.08.77,2.31.62,3.38,1.23s3.87,1.86,3.87,1.86,1.86.3,1.86.76.61-1.24.45-2.31-.31-2.46.77-2.77,2.78,0,2.78-.47a2.38,2.38,0,0,1,.47-1.08l1.38-1.69-.15-1.07,1.4-1.1s-.77-.91-1.4-1.69-1.23-1.23-.79-2,2-1.85,2.8-1.23,3.07.92,2.92,1.7,0,1.84.31,1.24a11.71,11.71,0,0,0,.16-3.09s-1.24-1.69-2.32-1.85a32.59,32.59,0,0,1-4.63-1.85c-.77-.31-2.15-1.08-2.15-1.08s.61-1.69-.3-1.54-3.71-.31-3.71-.77-2.78-2.63-2.92-3.08-2.63-3.86-2.63-3.86a10.61,10.61,0,0,1-1.54-1.85c-.16-.47-.31-1.24-.62-2.47s3.08-4.31,2.93-3.85.77,1.07,1.4,2.46,3.07,3.7,3.38,4.63,3.71,3.55,4.47,3.85,1.23,1.24,2.78,1.85,1.4.92,3.4,1.85,2.31,1.24,2.6,1.69,1.55.32,2,1.09,1.07.92,1.07,1.69.63.77.31,2.31-.77,2-.61,2.31,2.93,6,4,6,4.31,1.24,3.85,3.08,2,4.32,2,4.32,2.06.13,3.49.37c.06-1.08-.17-2.81,1-3.46,1.37-.77,3.38-1.55,3.07-2.31a6.16,6.16,0,0,0-1.85-3.08c-1.22-.92-2.47-1.4-2.78-2.93s-.77-3.55.62-2.93,2.62,3.55,3.25,1.54,2.14-3.4,3.22-2.93,3.1,1.23,2.94,1.85,1.39,5.56,1.39,5.56.61.46.92,2.77,2.31,2.93,2,3.7-1.24,1.22,1.23,1.54,4.78.76,4.78,1.38,2,.94,2.31,1.4,2.16,1.38,2.47.46.93-2.78,1.39-2.47,4.31.32,4.62,1.56,2.94,1.21,2.94,1.54,2.31-.77,2.31-.77,3.23-2.47,4.16-2,3.54-1.71,3.23.3,1.65,3.86.88,5.86Zm15.41-27.14c-.46.47-3.39,3.39-3.39,3.39l-5.87-.77h-4l-3.39-1.23a12.53,12.53,0,0,1-2.78-1.24,20.32,20.32,0,0,0-3.39-1.54l-6.17,1.39-4.78,1.39-1.69,1.53L646,277.89l-3.39-1.69-1.86-2h1.7l-.6-2.47.3-1.69,1.53-.93,1.09-4.47,1.85-.77.46-2.31s1.55-1.39,2-1.86,2-2.62,2-2.62l3.7,1.55s3.85.46,3.24.62-2.48,2.32-2.48,2.32a22.32,22.32,0,0,1,2,1.23c.6.46,2,1.22,1.69,2.15s2.31.77,2.31.77l.92-1.54,4.31-1.07,1.55-.78-2.47-.76s-2.16-.78-1.85-1.25,2.31-3.54,2.31-3.54,5.1-1.54,5.55-1.54,3.56-.62,3.56-.62-2.47,2.47-2.79,2.93.16,2-.61,2.63a10.18,10.18,0,0,1-2.31,1.39c-.47.14-.17,1.69.3,1.85s2,.77,2,.77l6.79,3.54,4.16,4.16,3.25,2.63c-.11,0,1.26,1.38.8,1.84Zm39.17,20.35-3.87.46s-3.38-1.39-3.53-2-.93-2-1.4-1.7a4.48,4.48,0,0,1-2.46.31c-.46-.15-2.17-1.54-2.17-2.16s-.47-2,.31-2.62,2.32-1.69,2-2.16a9.69,9.69,0,0,1-.47-2.77c0-.31,0-.61.93-.77l.93-.16s.3-.92-.16-1.38-3.25-2.47-3.55-2.93-3.7-3.7-4.16-4.17-2.47-1.84-2.47-1.84l-1.08-2.32.93-2.93-2.77-.61-.61-2v-.47l2.91-3.38s2-1.08,2.47-.79,1.54-.92,1.72-1.38,3.06-2.47,3.69-2.78,1.69-1.69,2.31-.92,4.46,2,4.46,2,1.4.3,1.23.91-1.38,4.64-1.38,4.64a15.07,15.07,0,0,0-3.08-.62c-.3.15-2.46.93-2,2.16s-1.69.46-1.54,1.08a3.44,3.44,0,0,0,.93,1.84c.46.31,3.07,1.7,3.38,2.62s4.62,3.71,4.62,3.71a.84.84,0,0,1,.31.93c-.14.61-.46,3.85,0,3.85s1.54-.16,1.54-.16,1.4-2.92,1.86-2.61a9.41,9.41,0,0,1,2.78,2.77c.45,1.08,1.38,2.15.92,2.46s-2.63.15-3.24.15-1.7-.77-2-.46a1.72,1.72,0,0,0-.46,2,9.6,9.6,0,0,0,1.86,2.63,6.66,6.66,0,0,1,2.31,1.39c1.39,1.24,1.85,1.85,1.39,3.24a4.86,4.86,0,0,0,0,3.07,10.12,10.12,0,0,0,.77,2,2.23,2.23,0,0,1,.3,1.07l-4.54.78ZM670.71,173.42a.37.37,0,0,0-.13,0c-.05,0,0,0,.13,0Zm374.65,32s0-.06,0-.09,0,.15,0,.09Zm-278-52,.19-.08a.62.62,0,0,1-.19-.21C767.23,152.64,767.33,153.35,767.33,153.35ZM723.64,497.7a41.67,41.67,0,0,0-3.49,4.34c-.22.6-2.88,3.89-3.3,4.92s-3.69,3.28-3.69,3.28l-6,2.47s-2.05.21-1.44,1a10.64,10.64,0,0,1-1.84,3.49c-1.45,1.85,0,4.31,0,4.31l.81,4.11v3.91s-1.23,4.32-1.85,4.52-1.64,1.44-2.25,3.5a8.6,8.6,0,0,0-.41,3.49s.41,3.09-.22,3.71,1,3.69,1.66,4.73a5.19,5.19,0,0,0,2.26,1.64s1.43,1.24,2.05,1.64,3.7-.8,3.7-.8,2.26-1,2.87-1.45,1-.62,2.26-2.67.42-1.45.62-2.06a35.17,35.17,0,0,0,2.06-6.79,48.72,48.72,0,0,1,1.64-6.37c.82-3.08,1.85-3.91,2.06-6.37a26.15,26.15,0,0,1,.6-4.33c.22-.82,2.28-3.9,2.48-6s.2-3.08-.2-3.9,2.47-.21,2.87-1.45a5.26,5.26,0,0,1,.21-.6,48.21,48.21,0,0,0,.42-6.79c0-2.26-2.26-5.77-2.49-6.37s-1.42.83-1.42.83ZM929,467.89c.62-1.64,0-1.85-.41-2.67s.81-4.51,2.47-6-.83-1.65-.83-1.65l-2.46.41-2.27-4.32s-3.9-3.07-5.13-3.9,1.84-2.47,1.84-2.47-7-6.58-7.8-6.58-4.94-3.28-5.56-3.5-3.9-5.75-3.9-5.75l-14-7s-1.84,1.66-1.84,2.47,2.47,1.23,2.47,1.23a11.6,11.6,0,0,0,1.64,1c.82.41,3.28,2.47,3.49,3.91a4.85,4.85,0,0,0,2.06,3.49,11.52,11.52,0,0,0,3.9,1.86s1,3.49,1.86,3.9,1.44,2.26,1.84,3.29,4.33,7.4,4.11,9.66,2.89,7.62,2.89,7.62,7,5.54,7.2,6.37,5.32,2.26,5.32,2.26,2.53-2.12,3.15-3.74Zm47.69-42.14c0-.82-2.27-2.66-2.89-3.49a53.43,53.43,0,0,0-5.13-4.73c-.82-.62,0,0-1.23,2.27s-2.68,4.93-3.3,5.13a31.25,31.25,0,0,0-6.37,4.52c-1.23,1.44-3.69,5.14-4.51,4.54s-4.33,2.65-4.33,2.65l-1.85,4.53-5.76-1.23.41,1.86s-1.84,2.86-1.43,3.49,0,2.88.62,4.1a7.62,7.62,0,0,0,2.25,2.89c1,.82,1.23,3.49.62,5.55s.83,2.46,1.64,3.3a3.17,3.17,0,0,0,3.5.4,3.53,3.53,0,0,1,3.51-.2c1,.61,3.69.61,4.51,1.64s4.11.41,4.72,1,3.91-.62,4.73-1.46,0-2.44,0-5.13.41-2.46,1.86-3.49,2.46-1.85,2.67-3.28a48.88,48.88,0,0,0,.62-5.15c0-1.23,3.29-1,3.9-1.44s-.42-1.23-.42-1.84-2.67-3.5-3.28-4.53,1-6.17,2-7a12.07,12.07,0,0,0,2.91-5Zm-28.78,55.31c.61.2,2.05.2,5.12,1s6,1,6.39,1.85,3.07,0,4.32-.2,4.12-2.88,6-.82,5.55.61,6.17,1,2.48-1,4.73-.81,2.47.81,3.08.81,2.67.62,3.7.4,2.26-1.43,4.12-1.22,6.77-1.45,6.77-1.45,0,.21-1.21,1-5.36,3.9-5.36,3.9-.62-.4-.83.84-1.43,3.7-.2,2.66,5.56-4.72,6.59-5.54a19.17,19.17,0,0,1,2.46-1.86,18.33,18.33,0,0,1,3.28-1.23l1.45-1s-1.24-.81-1.86-.61-1.64-.82-3.07-.2a35.64,35.64,0,0,1-5.35,1.23,8.86,8.86,0,0,1-3.9-.2c-1.44-.62-3.09-1.65-3.71-.83s-4.1,1.85-4.73,1.85a26.14,26.14,0,0,1-4.52-.61,9.29,9.29,0,0,0-2.88-.41c-.82,0-.82-.61-3.08-.83s-2.89-.81-3.49-.61a15.84,15.84,0,0,0-2.46.83c-.83.4-3.31.4-3.91-.22s-6.8-1.84-6.8-1.84-.81-1,1-1.65,1.44-.61,1.23-1.43-3.3-.84-4.11-.61-2.89.61-3.71-.23-3.28-2.88-4.1-1.64-.41,2.88-1.24,2.68-6.38.41-6.38-.2a4.89,4.89,0,0,0-2-2.48c-.62-.2-.41-.82-1.44-1.24a6.61,6.61,0,0,0-3.08.21l-2.05.21-2.47,2.88s5.75.62,6.37,1.44a36.82,36.82,0,0,0,3.7,3.28s4.1,1,5.14,1.24,5.8.49,6.42.72Zm-6.76-115.34a5.86,5.86,0,0,0-2.27-.41l-2.06.82-1-.41-2.27,3.08s.62,3.49,1.23,3.49h2.88l2.27-1.64,1.24-3.08S941.75,366.13,941.16,365.72Zm33.29-8.23,1.24-2.47s.62-2.47.81-3.08,1-2.47.43-3.5-.22-2.46-.62-3.28a8.41,8.41,0,0,1-.62-2.06l-2.06.82c-.82.82-2,4.52-2,4.52s-.83,3.71-.21,4.52l2.26,3.09.83,1.44Zm25.88,61.89c1.85.62,2.47.22,2.26-.63s-.82-5.13-1.23-6.76,2.47-2.89-.61-5.35-2.88-2.26-3.08-2.48a8.92,8.92,0,0,1-.21-2.25s.61-2.06.21-2.67-.83-1.85-1.24-2.46-.41-.83-1.65-.83-1.23-1.44-2-1.24-2.88,1.85-1.44-.6.62-2.89.62-3.31-1-1-2.06-1.22-1.85-1.44-3.29-1-2-.61-2.87-.61-1.23-1-1.44-2.26a25.69,25.69,0,0,1,.21-4.32,9,9,0,0,1,1.23-2.47,3.34,3.34,0,0,0,0-2.26,29,29,0,0,1-1.23-4.93c0-1-2.28-2.06-2.28-2.06l-2.67,1-1,9.05s-1.85.6-1.64,1.43.19,4.73,1.23,5.55,2.67,1.85,2.67,1.85c.41,1-.6,3.07-.6,3.07s2.45,2.89,2.67,3.72,1.44.4,1.44.4-.62-5.55.61-4.53,4.52.84,4.72,2.07,2.47,2.46,2.87,3.7,3.09,1.65,2.9,2.67-1.86,1-2.9,1.23-4.31-2.25-4.31-2.25-.82-.21-1,1a9.83,9.83,0,0,0,1.23,5.34c.82,1,1.64,0,2.06.61s0,2.07.62,2.89a2.59,2.59,0,0,0,2.88.61c.61-.4,2.67-1.43,2.67-1.43s-.22-2.47-1-2.89-2-1.64-1.43-2.25,1.84-1.85,2.47-1.65,2.06,2.88,1.84,3.49,0,.83.83,3.08,1.23,1.86.2,2.28-2.05,1.64-2.68,2c-.13.1-.15.16-.13.2a7.55,7.55,0,0,0-1.51-.2c-2.68-.2-2.06-1.44-2.68-.2s-1.23,2.25-1.23,2.25l-1.43.62s-1,3.28-.83,4.31l.2,1s2.06-3.91,2.68-3.91.61,1,1.44.41a1.62,1.62,0,0,1,1.65-.2s1.23-.63,1,1a5.49,5.49,0,0,0,.41,3.52c.63,1.63,2.28,2.46,2.89,3.07s1.43,1,1.85,1.44.61-1.85.41-3.5-1.14-3,.69-2.32ZM986,444.26a32,32,0,0,0,5.55,2.47c1.86.61,3.69-1.24,4.11-.82s2.26-1.45,2.26-1.45,1.43-2,1.24-2.66-.42-2.48-.83-1.86a21.31,21.31,0,0,1-5.13,3.08c-.82.21-2.88-.61-4.73-.61s-6.37-1.44-7-.83-2.46,3.08-2.26,4.12a8.08,8.08,0,0,1,0,2.27c0,.61-.61,3.49-.61,2.67l-2.88,7.59s2.26,5.77,2.06,6.8-.62,6.79,0,6.16,3.69-1,3.69-1,1-3.7.84-5.34-2.07-6.79-.43-6.37a8,8,0,0,1,3.3,2.46s-1.24,1.25-.82,2.07,1.85,1.84,1.64,3.69.62,2.68.62,2.05,2.06.42,2.26.83,2.13-1.35,2.43-1.34c0-.61.33-3.13-.17-3.8-.62-.82-.62-2.05-2.05-3.7s.41-2-1-3.92-2.06-1.22-1.44-1.84a16.84,16.84,0,0,1,2.88-1.64,6.58,6.58,0,0,0,1.84-2.26c.21-.62.63-.41-1-.82s-3.09-.83-4.11.41a4,4,0,0,1-2.06,1.43l-.82.21c-.82.21-.62-1.23-1.23-1.44s-.63-.41-1-1.84,0-3.71.63-4.13a3.55,3.55,0,0,1,4.28-.59Zm5.34,24.05c0-.07,0-.1,0-.1s0,.2,0,.1Zm80.59,0a11,11,0,0,0-1-3.7c-.63-1-14-8-15.64-8.64s-10.26-3.29-10.26-3.29-4.13,1.65-4.13,2.27-2.06,2.87-2.88,3.7-.61,1.64-1.84,1.44-1.44,0-2.07-.62-1.23-2.68-2-3.29-2.46-1.44-2.07-3.08,1-3.9-.2-3.9-3.07.83-3.49.19-2.87-.39-2.87-.39l-5.13,1.43-.64.21s2.27,4.31,3.72,3.9,4.1,2.88,4.1,2.88-.81,1.85-.41,2.47,2.06,3.7,2.06,3.7l3.29-.21,3.28,1.44,8.85,2.88,2.48,2.86,1.44,6.19s-3.72,2.46-3.5,3.49,4.73-.2,4.73-.2l3.69,1.84,4.51,2.26,5.16.2,3.07-3.49s4.52-3.9,4.52-3.08,4.12,2.47,4.74,4.32,4.32,5.15,4.32,5.15,5.13,1.64,5.75,1.85,2.06.41,3.5.81-1.45-3.7-1.45-3.7-4.52-2.68-4.73-3.71-3.9-4.1-3.69-5.13-1.66-2.26-.82-2.26,4.1-.4,3.69-1-2.67-4.52-3.69-4.52c-1.06-.18-4.16-.18-4.37-1.4Zm7,69.47s-2.26-1-2.47-.61-1-3.91-1-3.91l.41-2.26s-6.17-7.82-6.36-7.19-2.27-6.38-2.27-6.38l-.62-7.6-1.44-4.53-3.69.42-.83-7.41-2.07-7-1-.41-2.06,4.73s-1,6.58-1.45,8.84-.61,5.56-1.84,7.61-4.12,7-4.12,7-3.29,0-3.7-.61-4.11-2.47-4.11-2.47L1038,512.5l-3.68-2.88s-2.49-3.09-2.69-2.88a20.9,20.9,0,0,1,2.46-3.29c.64-.41.83-2.46.83-2.46l3.29-2.68s.62-1,0-1.64-.62-1.65-1.44-1.86-5.55,2.07-5.55,2.07l-3.91-1.86s-2.88-1.44-3.48-2.47-2.27-1.64-2.68-1.23,0,2.47,0,2.47.84,1.81,1.14,2.37c-.38-.32-1.76.72-1.76.72l-3.91.4-2.47,2.26-1.85,3.5-1.23,2.47s1,1.64.62,1.43-6,1.44-6,1.44a24.8,24.8,0,0,0-2.06-3.69,7,7,0,0,0-3.29-1.65c-.81,0-2.87,1.85-2.87,1.85l-.81,4.31-3.1-.82-2.67,4.52-2.65,1L986.77,517l-.82-3.28-3.08,2.87-1,4.72a48,48,0,0,0-4.32,4.53c-.41.81-9.06,3.91-9.06,3.91l-5.53,1.85s-2.88.61-3.5.61-6,3.91-6,3.91L951.62,538l-.61-1.65-2.27,2.47V544L946.48,547l1.24,4.72-1.86.63-1.64,1.24,1.85,3.7.62,6.77a7.41,7.41,0,0,1,.82,3.3c-.2,1.22-1,2.46-1,3.28s.62,3.9.62,4.72a57.85,57.85,0,0,1-1.86,6.19L943,585.27l-1.85.21s.4,3.91,1,3.91a23.34,23.34,0,0,1,4.11,1.44c1.65.6,4.32-.41,4.94-.63s5.14-2.67,5.14-2.67,2.68-1.84,3.49-1.64,4.54-.41,5.14,0,5.35.21,5.35.21L973.2,583l7.82-3.5,3.91-.42,9.44-2.66,8,.81s6.79,5,6.79,4.53,1.43,2.68,1.43,2.68l-.4,3.9s2.25,1.85,2.45,1.23a25.35,25.35,0,0,1,3.1-3.7c.6-.61,2.47-1.43,3.91-2.46a7.84,7.84,0,0,0,1.84-1.65s-1.43,4.11-2.06,4.11-1.86,1.23-2.47,2.06-1.63,1.44-1.63,1.86,1.23.4,1.83,0a25.78,25.78,0,0,1,2.49-2.07c.81-.41,1.24-.2,1,.82s-.2,2.05-1,2.46-1.86,1-3.31,1.86-2.45.2-3.07.83.4,1.24.82,1.64,1.45,1.65,2.25.21a9.06,9.06,0,0,1,2.48-2.88c.61-.4,1.85-1.66,1.85-.63a12.3,12.3,0,0,0,.82,2.9c.21.81-1.43,2.46-1.24,2.86s2.28,4.94,2.28,4.94,1.23,1.63,2.66,1.63a22.79,22.79,0,0,1,5.14,1.26c.6.19,3.5,0,3.91-.83s2.88-2.47,2.67-1.86a3,3,0,0,0,.82,2.47,18.87,18.87,0,0,1,1.64,2.27l7.61-6s5.76-1.24,6-.62,3.9-4.1,3.9-4.1l11.72-14.39,4.54-3.09,3.28-4.73,4.52-8.23,2.47-9.23,1.85-7-4.52-6.79-1.84-5.78Zm-45.65,76.69a23.38,23.38,0,0,1-3.3-2.46v-.62l-2,6.36-1.84,6.8a41.43,41.43,0,0,1,4.1.61c.42.2,6.59-3.49,6.8-4.31s4.31-7.61,4.31-7.61-6.58,1.42-8,1.21Zm111.43-11.92-2.06-2.07s.21-2.87-.42-2.87a11.63,11.63,0,0,0-1.64.2l1-7.2-3.71-2.25-.81,11.1-2.68,6.18-5.33,2.05s2.25,2.26,3.07,2.26-.61,2.46-.61,2.46l-3.5,3.09a2.53,2.53,0,0,1-1.22-2.26c0-1.65-3.3,1.64-3.3,1.64l-2.26-1.44-6.17,5.33-8.43,4.33-19.73,12.14,2.67,1.43s2.46,1,2.67,1.45,6.16-2.68,6.16-2.68l6.79-4.94,3.28-2.87s6-1.65,5.76-.82,1.85-3.91,1.85-3.91l5.76-3.08,3.5-3.49,2.87.81,4.12-1.44,7-4.52,1.23-3.71,2.27.22,4.3-3.09,2.88-4.93-5.26,2.84ZM316.17,151.69c1.64.61,2.67.82,6.17,1s3.91-.21,5.55.4,3.07,1.66,3.7.2,1.43-1.43,2.05-2.25,0-1.65,1-2.06,2.89,1.65,2.89,1.65-2.27,1.44-1.24,1.64,3.9.82,5.35,1,.2.62,2.67.85,3.49-.23,6.57-.23,5-1.43,6-1a16.93,16.93,0,0,0,5.54.21c1-.21,3.51-2.46,2.48-2.46s-4.94-1-6.58-1.23-6.8-.41-8,.2-2.69,1-3.51.62,3.51-3.7,6.38-3.29,7.19-.41,8.63-.2,4.94.82,4.94.82a2.23,2.23,0,0,0,1-1l.42-1.23,2.06,1.85s13.56-5.55,14.18-6.58,9.24-3.71,10.49-3.49,9.65-3.5,11.1-2.89,9-1.84,9-1.84,5.56-1.24,6.79-1.24,1.85-1.43,0-1.23-17.28.21-21,0-12.75,0-14.19.21-9.67,2.46-13.16,2.26-14.8,1.43-15.41,1.23-5.14-.41-4.73-.41-6,5.14-7,3.69,0-2.46-1-1.43-.85,5.76-.85,5.76c1.23.82,3.9,3.7,5.76,2.47a3.21,3.21,0,0,1,3.49-.42c.61.21-2.88,2.88-4.94,2.88s-8.64,2.47-8.64,2.47a28.92,28.92,0,0,0-3.49-2.88,36,36,0,0,0-4.72-.41c-.62,0-1.44-.61-1.65,1.23s.21,4.73-1.85,4.32-2.67.4-3.7-.21,1.45-3.7-1.45-3.9-4.52-2.26-6.16,1-2.63,3.29-1,3.91Zm-74.43,12.74c-.62,1,5.33,1.44,5.74.63s4.13-.22,4.94-1.44,4.93-3.71,5.55-3.3-1.23,2.47-1.85,2.68,2.07.4-.62,2.47-2.05,3.91-2.05,3.91-2.26,1-.61,1.43a38.79,38.79,0,0,1,4.72,1.85s.21,1.44.21,1.85,1,1.65,3.28.21,6.79-3.08,7.41-2.47,2.06-.2,4.12-.41a16.19,16.19,0,0,0,3.7-.82l2.67.41c1.23.62,2.27-.82,4.33.41a11,11,0,0,0,4.92,1.23,33.44,33.44,0,0,1,3.49-2.46c.62-.2,1.85-.41,1.24-1.85s-2.88-3.7-2.26-4.12,2.05-.82,1.85-4.72.41-3.28-.62-3.08a22.59,22.59,0,0,0-3.5,1.44l-.81-.21c-.41,1.23-2.27,2.06-2.69,3.29s-1.62,1.85-1.62.82-1.44-1.24-1.66-2.06-2.06-.61-3.08-.41-3.91-1.85-4.94-1-2.06-.41-2.88-2.26-1.85-3.3-3.08-3.1-8.84,0-8.84,0l-4.52.41s-2.46.63-2.46,1.87a2.26,2.26,0,0,1-1.65,2.46c-1.24.41-10.28,3.7-10.28,3.7S242.36,163.4,241.74,164.43Zm64.55-4.93-2.26-.41s-.2-1.64-.82-1.64-2.47,2.26-2.47,2.26,2.68,1,3.09,1.85,1.43,1.84,1.43,2.47,6.79-2.06,6.79-2.06l3.71-1.85s.19.41.41-.62-.41-1.84,0-2.05,2.05-2.88.4-2.47-5.14,0-6.78.62-3.7-.82-3.49.82a13.3,13.3,0,0,1,0,3.08ZM273.39,150s.82,3.5,2.48,2.47,6.36,2.48,6.36,2.88,1.64.21,1.64.21l7.21-2.47,4-.62s3.79-.21,4.4.21,3.71-1,3.71-1l1.23-2.07-2.68-.82.63-2.05s-.83-1.24-2.67.2-7,4.31-6.59,3.7-2.05.2-3.08-1a4.39,4.39,0,0,0-2.47-1.44s-2.89-1-3.9-.61,1.84-2.06,1.84-2.06.62-2.26-.62-2.05-11.3,2.46-11.3,2.46-4.32,2.47-5.14,1.85-3.9.41-3.9.41l2.05,1.23C267.23,148.81,273.39,150,273.39,150Zm45.85-8.42c.61.2,5.55,1.64,6.17,1.84a8.51,8.51,0,0,0,3.28.42c.82-.21,4.11-1.85,2.89-2.47s-5.15-1.45-6-1.87a18.78,18.78,0,0,0-3.91-.6l-1.85.4c-.41.62-1.24,2.08-.62,2.28Zm-19.74,3.49c.84-.41,3.71-1.64,3.71-1.64l2.45-2.05.84-1s-1.85-1.64-2.68-1a54.72,54.72,0,0,1-5.15,2.47l-.2,1.44-3.37,1.44s3.57.82,4.4.41Zm37-.61c.81.2,3.28.2,3.48-.42a34.5,34.5,0,0,0-.2-4.94s-.83-1.22-1.85-1a32.35,32.35,0,0,0-4.31,1.84c-.21.62,2,4.33,2.89,4.54ZM284.59,363.59c-.14-.46-2.46-1.21-3.69-1.21s-5.71-4.33-6-5.26-10.33-3.39-10.33-3.39-10.95-.62-10.95-.92-5.25,4.16-5.25,4.16v.46s.45,2.16.63,2.62,3.54-2.47,3.85-3.7,2.77-1.55,3.38-1.85.93,1.24,1.55,1.24a25,25,0,0,1,3.39.92l5.56,1.85,2.15,2s.92,4.92.92,5.55,4.17.3,4.17.3l8.17-.75S284.76,364.05,284.59,363.59Zm-.3,10.33c.77.31,2-.15,2.62-.15a21.25,21.25,0,0,0,2.63-.46,8.56,8.56,0,0,1,.61,1.85c0,.46,3.24-.16,3.24-.62a5.76,5.76,0,0,1,.77-1.69l3.85-.77s5.25.15,5.71.15.77-.92-.16-2.62-3.55-2-4.17-3.25-3.54-.44-4.31,0-5.08-1.07-6.32-1.07,0,1.39,0,1.39l-.47,4.47h-5.08l-.16.46s-1.39.46-1.39,1.39,1.86.62,2.63.92Z" style="fill:#cdd7e2"/></g></svg>