<svg width="178.03" height="58" version="1.1" viewBox="0 0 178.03 58" xmlns="http://www.w3.org/2000/svg">
	<path d="m45.429 2.3344e-6h-41.994a3.431 3.431 0 0 0-3.435 3.435v30.14a24.425 24.425 0 1 0 48.85 0v-30.14a3.431 3.431 0 0 0-3.435-3.435zm-27.479 29.044a11.065 11.065 0 1 1 11.065-11.065 11.066 11.066 0 0 1-11.065 11.065z" fill="#24285c"/>
	<g fill="#24285c">
		<path d="m59.696 24.937h4.239v-17.92h5.233v-3.757h-14.793v3.757h5.321z"/>
		<path d="m83.199 11.942a5.272 5.272 0 0 0-2.061-2.061 6.03 6.03 0 0 0-3.026-0.745 5.472 5.472 0 0 0-2.88 0.731 4.288 4.288 0 0 0-0.994 0.877v-7.484h-3.931v21.662h3.947v-8.931a4.072 4.072 0 0 1 0.365-1.8 2.627 2.627 0 0 1 1.028-1.05 3.143 3.143 0 0 1 3 0 2.792 2.792 0 0 1 1 1.052 3.385 3.385 0 0 1 0.365 1.637v9.092h3.947v-9.94a6.142 6.142 0 0 0-0.745-3.055z"/>
		<path d="m100.21 17.501a4.978 4.978 0 0 0 0.058-0.862 8.2 8.2 0 0 0-0.512-2.894 7.378 7.378 0 0 0-1.462-2.383 6.69 6.69 0 0 0-2.339-1.637 7.921 7.921 0 0 0-3.172-0.6 7.389 7.389 0 0 0-3.888 1.052 7.49 7.49 0 0 0-2.733 2.836 8.356 8.356 0 0 0-0.993 4.088 8.421 8.421 0 0 0 0.979 4.049 7.655 7.655 0 0 0 2.763 2.909 7.872 7.872 0 0 0 4.151 1.067 8.409 8.409 0 0 0 2.894-0.482 7.046 7.046 0 0 0 2.28-1.33 5.218 5.218 0 0 0 1.418-1.959l0.058-0.146-3.2-1.579-0.073 0.132a3.741 3.741 0 0 1-1.316 1.345 3.842 3.842 0 0 1-2.032 0.5 3.966 3.966 0 0 1-2.1-0.555 3.5 3.5 0 0 1-1.374-1.564 4.434 4.434 0 0 1-0.336-1.184h10.724a2.121 2.121 0 0 0 0.2-0.819zm-9.355-4.517a3.7 3.7 0 0 1 3.873 0.015 3.135 3.135 0 0 1 1.33 2.236h-6.694a4.529 4.529 0 0 1 0.219-0.672 3.368 3.368 0 0 1 1.272-1.579z"/>
		<path d="m119.36 25.01a10.686 10.686 0 0 0 10.451-10.875 10.459 10.459 0 1 0-20.9 0 10.686 10.686 0 0 0 10.449 10.875zm0-17.526a6.455 6.455 0 0 1 6.227 6.651 6.24 6.24 0 1 1-12.454 0 6.455 6.455 0 0 1 6.227-6.651z"/>
		<path d="m139.37 9.136a6.52 6.52 0 0 0-4.5 1.535s-0.029-0.132-0.058-0.219a1.514 1.514 0 0 0-1.593-1.1h-2.298v22.279h3.947v-8a5.844 5.844 0 0 0 1.272 0.848 7.141 7.141 0 0 0 3.07 0.658 7.472 7.472 0 0 0 6.738-3.947 8.577 8.577 0 0 0-0.015-8.1 7.507 7.507 0 0 0-6.563-3.947zm3.055 10.261a3.852 3.852 0 0 1-1.447 1.535 4.093 4.093 0 0 1-2.119 0.555 3.8 3.8 0 0 1-2.046-0.555 4.028 4.028 0 0 1-1.432-1.535 4.755 4.755 0 0 1-0.526-2.266 4.7 4.7 0 0 1 0.526-2.251 3.764 3.764 0 0 1 1.432-1.549 3.906 3.906 0 0 1 2.046-0.555 3.948 3.948 0 0 1 3.567 2.1 4.655 4.655 0 0 1 0.526 2.251 4.754 4.754 0 0 1-0.528 2.27z"/>
		<path d="m162.86 17.501a4.978 4.978 0 0 0 0.058-0.862 8.2 8.2 0 0 0-0.512-2.894 7.378 7.378 0 0 0-1.462-2.383 6.69 6.69 0 0 0-2.339-1.637 7.921 7.921 0 0 0-3.172-0.6 7.389 7.389 0 0 0-3.888 1.052 7.49 7.49 0 0 0-2.733 2.836 8.357 8.357 0 0 0-0.994 4.093 8.421 8.421 0 0 0 0.979 4.049 7.655 7.655 0 0 0 2.763 2.909 7.872 7.872 0 0 0 4.151 1.067 8.409 8.409 0 0 0 2.894-0.482 7.046 7.046 0 0 0 2.28-1.33 5.218 5.218 0 0 0 1.418-1.959l0.058-0.146-3.2-1.579-0.073 0.132a3.741 3.741 0 0 1-1.316 1.345 3.842 3.842 0 0 1-2.032 0.5 3.966 3.966 0 0 1-2.1-0.555 3.5 3.5 0 0 1-1.374-1.564 4.434 4.434 0 0 1-0.337-1.192h10.729a2.121 2.121 0 0 0 0.2-0.819zm-9.355-4.517a3.7 3.7 0 0 1 3.873 0.015 3.135 3.135 0 0 1 1.33 2.236h-6.695a4.528 4.528 0 0 1 0.219-0.672 3.368 3.368 0 0 1 1.273-1.583z"/>
		<path d="m167.67 10.452a1.514 1.514 0 0 0-1.593-1.1h-2.297v15.585h3.947v-9.092a3.385 3.385 0 0 1 0.365-1.637 2.627 2.627 0 0 1 1.023-1.052 3.143 3.143 0 0 1 3 0 2.792 2.792 0 0 1 1.005 1.05 3.385 3.385 0 0 1 0.365 1.637v9.092h3.947v-9.94a6.142 6.142 0 0 0-0.745-3.055 5.272 5.272 0 0 0-2.061-2.061 6.03 6.03 0 0 0-3.026-0.745 5.472 5.472 0 0 0-2.88 0.731 4.358 4.358 0 0 0-0.979 0.8s-0.029-0.132-0.058-0.219z"/>
		<path d="m69.796 42.112a4.809 4.809 0 1 1-9.618 0v-12.878h-4.224v12.878a9.033 9.033 0 1 0 18.066 0v-12.878h-4.224z"/>
		<path d="m79.151 36.456a1.514 1.514 0 0 0-1.593-1.1h-2.295v15.585h3.95v-9.092a3.385 3.385 0 0 1 0.365-1.637 2.627 2.627 0 0 1 1.023-1.052 3.143 3.143 0 0 1 3 0 2.792 2.792 0 0 1 1.009 1.052 3.385 3.385 0 0 1 0.365 1.637v9.092h3.938v-9.94a6.142 6.142 0 0 0-0.745-3.055 5.272 5.272 0 0 0-2.055-2.061 6.03 6.03 0 0 0-3.026-0.745 5.472 5.472 0 0 0-2.88 0.731 4.358 4.358 0 0 0-0.979 0.8s-0.029-0.132-0.058-0.219z"/>
		<path d="m92.232 29.234a2.47 2.47 0 1 0 2.47 2.47 2.477 2.477 0 0 0-2.47-2.47zm-2.046 6.124h4.078v15.582h-4.078z"/>
		<path d="m110.55 35.359h-4.443l-2.967 9.194a3.689 3.689 0 0 0-0.146 0.672l-0.058 0.512-0.058-0.512a3.443 3.443 0 0 0-0.146-0.672l-2.968-9.194h-4.444l5.861 15.582h3.552l5.862-15.582z"/>
		<path d="m124.55 43.52a4.978 4.978 0 0 0 0.058-0.862 8.2 8.2 0 0 0-0.512-2.894 7.378 7.378 0 0 0-1.462-2.383 6.69 6.69 0 0 0-2.339-1.637 7.921 7.921 0 0 0-3.172-0.6 7.389 7.389 0 0 0-3.888 1.052 7.49 7.49 0 0 0-2.733 2.836 8.891 8.891 0 0 0-0.015 8.142 7.655 7.655 0 0 0 2.763 2.909 7.872 7.872 0 0 0 4.151 1.067 8.409 8.409 0 0 0 2.894-0.482 7.046 7.046 0 0 0 2.28-1.33 5.218 5.218 0 0 0 1.418-1.959l0.058-0.146-3.2-1.579-0.073 0.132a3.741 3.741 0 0 1-1.316 1.345 3.842 3.842 0 0 1-2.032 0.5 3.966 3.966 0 0 1-2.1-0.555 3.5 3.5 0 0 1-1.374-1.564 4.434 4.434 0 0 1-0.336-1.184h10.725a2.121 2.121 0 0 0 0.2-0.819zm-9.355-4.517a3.7 3.7 0 0 1 3.873 0.015 3.135 3.135 0 0 1 1.33 2.236h-6.694a4.528 4.528 0 0 1 0.219-0.672 3.368 3.368 0 0 1 1.272-1.579z"/>
		<path d="m129.81 36.674s-0.029-0.132-0.058-0.219a1.514 1.514 0 0 0-1.593-1.1h-2.296v15.586h3.947v-8.537a3.848 3.848 0 0 1 1.067-2.675 3.444 3.444 0 0 1 2.47-0.95 5.35 5.35 0 0 1 1.506 0.175v-3.654a2.8 2.8 0 0 0-1.082-0.175 5.855 5.855 0 0 0-2.149 0.322 5.29 5.29 0 0 0-1.829 1.227z"/>
		<path d="m140.28 38.926a1.98 1.98 0 0 1 1.257-0.351 3.43 3.43 0 0 1 1.886 0.555 2.986 2.986 0 0 1 1.183 1.49l0.1 0.263 3.186-1.506-0.088-0.219a5.81 5.81 0 0 0-2.4-2.967 7.092 7.092 0 0 0-3.844-1.052 6.959 6.959 0 0 0-2.953 0.6 4.954 4.954 0 0 0-2.04 1.681 4.367 4.367 0 0 0-0.745 2.529 4.178 4.178 0 0 0 1.038 2.821 6.131 6.131 0 0 0 2.982 1.739l2.426 0.687a4.543 4.543 0 0 1 0.819 0.322 1.625 1.625 0 0 1 0.541 0.424 0.885 0.885 0 0 1 0.175 0.57 1.125 1.125 0 0 1-0.468 0.95 2.32 2.32 0 0 1-1.4 0.38 3.684 3.684 0 0 1-2.134-0.658 4.331 4.331 0 0 1-1.506-1.856l-0.1-0.234-3.119 1.491 0.073 0.219a5.992 5.992 0 0 0 2.514 3.2 7.785 7.785 0 0 0 4.268 1.169 7.348 7.348 0 0 0 3.055-0.6 4.95 4.95 0 0 0 2.076-1.681 4.319 4.319 0 0 0 0.76-2.5 4.062 4.062 0 0 0-1.067-2.85 6.35 6.35 0 0 0-2.938-1.71l-2.368-0.7a6.514 6.514 0 0 1-0.877-0.336 1.5 1.5 0 0 1-0.526-0.409 0.9 0.9 0 0 1-0.175-0.555 1 1 0 0 1 0.424-0.862z"/>
		<path d="m151.18 29.234a2.47 2.47 0 1 0 2.47 2.47 2.477 2.477 0 0 0-2.47-2.47zm-2.046 6.124h4.078v15.582h-4.078z"/>
		<path d="m162 47.534a3.126 3.126 0 0 1-1.432-0.278 1.662 1.662 0 0 1-0.789-0.76 2.691 2.691 0 0 1-0.263-1.242v-6.68h2.47v-3.216h-2.47v-3.727h-3.83v3.727h-1.228v3.216h1.228v6.885c0 1.8 0.248 3.216 1.242 4.21a5.716 5.716 0 0 0 4.21 1.491 7.728 7.728 0 0 0 0.965-0.058c0.351-0.044 0.658-0.073 0.921-0.117h0.132v-3.553l-0.716 0.073c-0.175 0.015-0.322 0.029-0.453 0.029z"/>
		<path d="m173.58 35.359-3.157 9.194a3.689 3.689 0 0 0-0.146 0.672l-0.058 0.512-0.058-0.512a3.442 3.442 0 0 0-0.146-0.672l-2.793-9.194h-4.02l4.034 14.4c0.2 0.745 0.453 1.067 0.965 1.184l-2.543 6.695h4.21l8.171-22.276h-4.447z"/>
	</g>
</svg>
